<svg xmlns="http://www.w3.org/2000/svg" xmlns:xlink="http://www.w3.org/1999/xlink" width="71.647" height="71.648" viewBox="0 0 71.647 71.648"><defs><style>.a{fill:none;}.b{clip-path:url(#a);}.c{fill:#d06666;}.d{fill:#febd00;}</style><clipPath id="a"><path class="a" d="M0,0H71.647V71.648H0Z"/></clipPath></defs><path class="a" d="M0,0H71.647V71.648H0Z"/><g class="b"><path class="c" d="M24.068,71.648H21.83a10.132,10.132,0,0,1-4.513-1.888c-.31-.194-.63-.395-.948-.583A41.024,41.024,0,0,1,7.017,61.47a41.967,41.967,0,0,1-5.879-8.137l-.109-.2A6.651,6.651,0,0,1,0,50.378v-4.2a10.522,10.522,0,0,1,3.245-4.426c6.667-6.363,13.44-12.838,19.99-19.1C30.043,16.146,37.079,9.42,44.015,2.8A6.335,6.335,0,0,1,48.486.914a7.745,7.745,0,0,1,2.457.428,2.037,2.037,0,0,0,.661.119,1.9,1.9,0,0,0,.605-.1A8.386,8.386,0,0,1,54.817.92a7.465,7.465,0,0,1,2.985.63,1.035,1.035,0,0,1,.092.049.446.446,0,0,0,.208.078.206.206,0,0,0,.146-.066A7.605,7.605,0,0,1,61.5.023L61.572,0h.978a5.834,5.834,0,0,0,.761.129,4.02,4.02,0,0,1,1.132.255,5.742,5.742,0,0,1,3.071,3A2.525,2.525,0,0,0,68.6,4.6a5.039,5.039,0,0,1,1.982,6.721,1.607,1.607,0,0,0,0,1.566,7.205,7.205,0,0,1-.2,6.775,1.043,1.043,0,0,0,.068,1.367,4.96,4.96,0,0,1,1.193,2.9v1.819a8.829,8.829,0,0,1-2.976,4.664C57.933,40.695,47.041,51.162,36.507,61.284l-.019.018-8.734,8.392a7.131,7.131,0,0,1-3.336,1.8.563.563,0,0,1-.106.01c-.1,0-.2.007-.243.139ZM7.033,56.413c.05.1.086.167.111.219a1,1,0,0,0,.082.149A37.956,37.956,0,0,0,21.619,68.469a3.05,3.05,0,0,0,.937.26,4.794,4.794,0,0,0,.521.03,4.136,4.136,0,0,0,2.957-1.287c7-6.742,13.872-13.36,21.152-20.367l1.8-1.732L59.6,35.16l1.484-1.426.188-.181c1.924-1.85,4.159-4,6.334-6.114a3.243,3.243,0,0,0,.1-4.745.5.5,0,0,0-.348-.206.414.414,0,0,0-.188.05,5.485,5.485,0,0,1-1.955.423l-.013,0c-.138.013-.276.025-.414.039-1.377.149-2.473.27-3.449.382H61.33l-.253.029c-1.95.217-3.964.441-5.947.631-.321.031-.506.1-.6.222a.832.832,0,0,0-.041.645A10.754,10.754,0,0,1,51.3,35.124C43.106,43.06,35.384,50.48,27.692,57.807A11.424,11.424,0,0,1,19.6,61.133a13.92,13.92,0,0,1-2.69-.272,17.244,17.244,0,0,1-3.822-1.4l-.018-.007c-.238-.109-.477-.217-.717-.324C10.644,58.371,9.049,57.527,7.033,56.413ZM47.811,3.9a3.717,3.717,0,0,0-2.052,1.064q-5,4.808-10,9.621l-.466.448-.278.268C24.917,25.028,14.471,35.085,4.164,44.97A3.819,3.819,0,0,0,2.885,47.8,4.5,4.5,0,0,0,4.471,50.98a33.381,33.381,0,0,0,11.572,6.6,10.772,10.772,0,0,0,3.559.65,9.071,9.071,0,0,0,6.325-2.69c1.569-1.478,3.114-2.97,4.825-4.628l.013-.013c.232-.223.464-.448.694-.671l.025-.024.027-.025.375-.362q.375-.363.749-.724L34.079,47.7l1.5-1.448L37.2,44.695l.769-.74C42,40.076,45.635,36.58,49.255,33.072a7.864,7.864,0,0,0,2.376-7.723c-1.079-4.98-2.3-10.344-3.829-16.881A7.572,7.572,0,0,1,47.811,3.9Zm7.021-.073A6.808,6.808,0,0,0,52.72,4.2,3.08,3.08,0,0,0,50.554,6.56a3.053,3.053,0,0,0,.139,1.5l.007.028c.034.127.07.258.1.388,1,4.414,1.88,8.31,2.7,11.911.013.052.022.11.03.166.038.236.076.48.324.48A.59.59,0,0,0,54.034,21l.21-.016.05,0,.085-.007.151-.013q1.629-.14,3.258-.283H57.8c2.038-.178,4.711-.411,7.314-.629a3.543,3.543,0,0,0,3.281-3.4,4.681,4.681,0,0,0-1.217-3.534,1.6,1.6,0,0,1-.532-1.179,1.676,1.676,0,0,1,.706-1.149,1.935,1.935,0,0,0,.815-2.079,2.088,2.088,0,0,0-1.709-1.638c-1.013-.235-1.312-.583-1.389-1.618a2.628,2.628,0,0,0-2.012-2.394,3.131,3.131,0,0,0-.753-.095A3.021,3.021,0,0,0,59.8,4.392a1.648,1.648,0,0,1-1.31.808,1.174,1.174,0,0,1-.771-.294A4.3,4.3,0,0,0,54.831,3.827Z" transform="translate(0 0)"/><path class="d" d="M1.387,2.579A1.3,1.3,0,0,0,2.651,1.261,1.276,1.276,0,0,0,1.341,0,1.282,1.282,0,0,0,0,1.309a1.3,1.3,0,0,0,1.387,1.27" transform="translate(31.359 37.634) rotate(-45)"/><path class="d" d="M1.3,2.6A1.336,1.336,0,0,0,2.656,1.351,1.313,1.313,0,0,0,1.338,0,1.262,1.262,0,0,0,0,1.232,1.311,1.311,0,0,0,1.3,2.6" transform="translate(45.362 23.621) rotate(-45)"/><path class="d" d="M1.335,2.608a1.305,1.305,0,0,0,1.3-1.364A1.254,1.254,0,0,0,1.316,0,1.3,1.3,0,0,0,0,1.268a1.331,1.331,0,0,0,1.334,1.34" transform="translate(20.159 39.508) rotate(-45)"/><path class="d" d="M1.29,2.607a1.338,1.338,0,0,0,1.337-1.28A1.287,1.287,0,0,0,1.36,0,1.263,1.263,0,0,0,0,1.3,1.288,1.288,0,0,0,1.29,2.607" transform="translate(33.246 26.42) rotate(-45)"/><path class="d" d="M1.335,2.6a1.323,1.323,0,0,0,1.3-1.289A1.308,1.308,0,0,0,1.284,0,1.244,1.244,0,0,0,0,1.274,1.3,1.3,0,0,0,1.335,2.6" transform="translate(16.424 52.559) rotate(-45)"/></g></svg>