<svg xmlns="http://www.w3.org/2000/svg" xmlns:xlink="http://www.w3.org/1999/xlink" width="75.561" height="75.245" viewBox="0 0 75.561 75.245"><defs><style>.a{fill:none;}.b{clip-path:url(#a);}.c{fill:#d06666;}</style><clipPath id="a"><path class="a" d="M0,0H75.561V75.245H0Z"/></clipPath></defs><path class="a" d="M0,0H75.561V75.245H0Z" transform="translate(0 0)"/><g class="b" transform="translate(0 0)"><path class="c" d="M30.727,75.244h0a18.732,18.732,0,0,1-11.421-3.851,11.989,11.989,0,0,1-3.439-4.119c-.149-.286-.259-.431-.444-.431a.928.928,0,0,0-.431.159,6.384,6.384,0,0,1-3.237.877,7.5,7.5,0,0,1-2.216-.35,14.072,14.072,0,0,1-9.056-7.9A5.237,5.237,0,0,1,2.48,53a9.58,9.58,0,0,1,4.782-1.595c.542-.047,1.07-.072,1.571-.072A11.3,11.3,0,0,1,14.9,52.914a.669.669,0,0,0,.32.123c.123,0,.209-.088.295-.3a9.874,9.874,0,0,1,3.9-4.361,24.382,24.382,0,0,1,8.183-3.921,10.076,10.076,0,0,1,1.582-.2c.335-.02.494-.048.475-.459A11.311,11.311,0,0,1,32.576,35.7a37.878,37.878,0,0,1,3.759-3.777,9.585,9.585,0,0,1,6.612-2.357c.165,0,.335,0,.505.009.061,0,.118,0,.173,0,.487,0,.72-.115.721-.767A10.04,10.04,0,0,1,45.311,25a31.5,31.5,0,0,1,3.229-5.764,9.357,9.357,0,0,1,4.675-3.887A12.626,12.626,0,0,1,51.883,5.09c.745-2.819,2.407-4.5,4.942-5.01A4.174,4.174,0,0,1,57.639,0a4.885,4.885,0,0,1,2.15.532,14.08,14.08,0,0,1,7.986,9.776,6.3,6.3,0,0,1-.747,4.777c-.1.16-.168.291-.138.4.025.089.115.171.293.264,4.567,2.405,7.227,6.466,8.133,12.414a17.85,17.85,0,0,1-1.17,10,8.8,8.8,0,0,1-4.727,4.92l-.038.016c-.14.057-.251.1-.284.2a.4.4,0,0,0,.078.31A13.842,13.842,0,0,1,71.065,51,17.447,17.447,0,0,1,69.007,58.3,22.454,22.454,0,0,1,55.844,69.856a15.521,15.521,0,0,1-4.917.845,13.407,13.407,0,0,1-6.9-1.934c-.027-.016-.053-.033-.079-.05a.486.486,0,0,0-.233-.105c-.084,0-.149.068-.206.214-1.157,2.966-3.594,4.852-7.449,5.764A23.205,23.205,0,0,1,30.727,75.244ZM29.08,46.706a4.6,4.6,0,0,0-1.125.192,10.32,10.32,0,0,0-1.088.344,30.156,30.156,0,0,0-6.542,3.534,7.788,7.788,0,0,0-2.946,3.958,15.7,15.7,0,0,0-.6,6.616,11.194,11.194,0,0,0,6.635,9.667,17.441,17.441,0,0,0,7.66,1.683c.087,0,.174,0,.264,0H31.4c.1,0,.179,0,.266,0,.131,0,.231,0,.324-.009a13.849,13.849,0,0,0,6.8-1.948,5.578,5.578,0,0,0,2.491-3.243A1.058,1.058,0,0,0,41,66.351,44.11,44.11,0,0,1,30.526,48.378C30.152,47.2,29.868,46.706,29.08,46.706Zm13.8-14.665a6.889,6.889,0,0,0-4.415,1.421,24.671,24.671,0,0,0-4.716,4.845,8.423,8.423,0,0,0-1.487,6.352,26.415,26.415,0,0,0,2.2,7.171,40.358,40.358,0,0,0,8.468,12.9,11.088,11.088,0,0,0,7.936,3.433,13.18,13.18,0,0,0,3.415-.478c4.851-1.316,8.713-4.347,11.807-9.266a14.952,14.952,0,0,0,2.414-7.9,10.581,10.581,0,0,0-3.263-7.854,34.329,34.329,0,0,0-7.872-5.691,39.994,39.994,0,0,0-12.29-4.727A12.943,12.943,0,0,0,42.879,32.042ZM8.864,53.822c-.22.022-.441.039-.665.057l-.048,0c-.487.04-.991.081-1.482.159a7.214,7.214,0,0,0-1.613.425,3.883,3.883,0,0,0-2.394,2.2,3.505,3.505,0,0,0,.593,2.962,12.738,12.738,0,0,0,6.162,5.236,6,6,0,0,0,2.225.459,4.91,4.91,0,0,0,1.928-.394,1.338,1.338,0,0,0,.953-1.543,22.755,22.755,0,0,1-.17-6.9,1.413,1.413,0,0,0-.878-1.507,9.742,9.742,0,0,0-4.612-1.159ZM59.146,16.659l-.344.016-.056,0-.054,0c-.312.013-.738.03-1.159.086-3.106.392-5.114,1.414-6.513,3.313a29.107,29.107,0,0,0-3.652,6.562,7.025,7.025,0,0,0-.575,2.12c-.066.981.153,1.3,1.066,1.537a34.593,34.593,0,0,1,4.254,1.412,45.22,45.22,0,0,1,14.763,9.051.78.78,0,0,0,.561.238,1.586,1.586,0,0,0,.416-.068,6.048,6.048,0,0,0,4.107-4.066A16.442,16.442,0,0,0,72,25.174c-1.373-3.918-3.718-6.429-7.171-7.678a18.822,18.822,0,0,0-5.682-.837Zm.177-2.494a24.268,24.268,0,0,1,4,.346,2.194,2.194,0,0,0,.344.03,1.386,1.386,0,0,0,1.313-.9,3.845,3.845,0,0,0,.385-2.444,11.345,11.345,0,0,0-6.917-8.465,2.151,2.151,0,0,0-.887-.2,2.7,2.7,0,0,0-1.494.511,4.074,4.074,0,0,0-1.482,1.889A10.429,10.429,0,0,0,53.948,9a8.654,8.654,0,0,0,.9,4.082c.464.936.7,1.263,1.468,1.263a5.341,5.341,0,0,0,.64-.047A20.264,20.264,0,0,1,59.323,14.164Z" transform="translate(0 0)"/></g></svg>