<svg xmlns="http://www.w3.org/2000/svg" xmlns:xlink="http://www.w3.org/1999/xlink" width="79.59" height="56.629" viewBox="0 0 79.59 56.629"><defs><style>.a{fill:none;}.b{clip-path:url(#a);}.c{fill:#d06666;}.d{fill:#febd00;}</style><clipPath id="a"><path class="a" d="M0,0H79.59V56.629H0Z"/></clipPath></defs><g transform="translate(0 0)"><path class="a" d="M0,0H79.59V56.629H0Z" transform="translate(0 0)"/><g class="b" transform="translate(0 0)"><path class="c" d="M66.471,56.628H12.665a.688.688,0,0,0-.436-.112h-.077l-.1,0-.072,0C9.457,56.338,7.407,55,5.533,52.306a9.032,9.032,0,0,1-1.584-5.562c.015-.454.011-.917.006-1.365,0-.3-.006-.607,0-.911a1.1,1.1,0,0,0-.745-1.156,6.411,6.411,0,0,1-2.274-1.76A4.588,4.588,0,0,1,0,38.246V35.384a5.259,5.259,0,0,1,5.394-5.4h.989c.3,0,.526,0,.74-.012.311-.013.509-.043.6-.158s.086-.319.031-.674a17.543,17.543,0,0,1,.011-5.625.8.8,0,0,0-.052-.6.655.655,0,0,0-.464-.212A3.691,3.691,0,0,1,4.627,21.29a3.843,3.843,0,0,1-.407-3.07A16.035,16.035,0,0,1,8.391,10.6c3.154-3.372,7.163-5.874,12.617-7.873a42.663,42.663,0,0,1,9.2-2.329A47.056,47.056,0,0,1,35.832.079c.073-.007.152-.01.24-.01.111,0,.222.005.33.01h.013c.107,0,.217.01.326.01A1.86,1.86,0,0,0,37.366,0h4.4a1.845,1.845,0,0,0,.623.089c.109,0,.219,0,.326-.01h.013c.107-.005.217-.01.327-.01.088,0,.167,0,.241.01.19,0,.38,0,.569,0A42.221,42.221,0,0,1,63.011,4.786a24.381,24.381,0,0,1,10.033,8.587,11.621,11.621,0,0,1,2.127,6.076A3.153,3.153,0,0,1,72.21,22.7c-.366.037-.556.076-.647.192s-.079.3-.018.7a17.979,17.979,0,0,1-.007,5.549c-.054.34-.064.547.036.669s.305.152.608.165c.346.014.682.022,1,.022.276,0,.548-.005.808-.016.054,0,.109,0,.163,0a5.4,5.4,0,0,1,3.764,1.746,5.461,5.461,0,0,1,1.672,3.844c-.011.44-.007.887,0,1.319s.007.851,0,1.276a5.585,5.585,0,0,1-3.306,5.049,1.514,1.514,0,0,0-.948,1.521c0,.359.007.725.015,1.078a12.725,12.725,0,0,1-.153,2.92,9.992,9.992,0,0,1-5.963,7.4,5.138,5.138,0,0,1-1.681.347,8.207,8.207,0,0,0-1.075.146h0ZM35.578,53.98H45.691l.127,0h3.01q3.08,0,6.16,0c4.534,0,7.529,0,10.015-.013a7.071,7.071,0,0,0,7.218-5.77,12.467,12.467,0,0,0,.144-2.74V45.4l0-.165,0-.172,0-.2c0-.124,0-.24,0-.357,0-1.07,0-1.07-1.084-1.07H7.632l-.086,0a.684.684,0,0,0-.493.131.5.5,0,0,0-.116.378c.006.385,0,.777-.016,1.245v.071a12.82,12.82,0,0,0,.16,3,7.147,7.147,0,0,0,7.193,5.711q7.109.005,14.217.005ZM8.228,32.9c-1.062,0-1.872.007-2.629.023a2.926,2.926,0,0,0-2.926,2.9c-.034.586-.018,1.208-.006,1.709v.1a2.949,2.949,0,0,0,3.254,3.195l33.66.007q16.834,0,33.66,0a6.434,6.434,0,0,0,.785-.038,2.856,2.856,0,0,0,2.561-2.65c.032-.405.027-.8.021-1.188l0-.143c0-.133,0-.265,0-.4a3.571,3.571,0,0,0-.844-2.657,3.477,3.477,0,0,0-2.578-.842q-6.926,0-13.855,0H59.3l-5.558,0h-.088c-10.629,0-16.776,0-21.927-.007a1.689,1.689,0,0,0-1.3.561c-1.651,1.672-3.422,3.432-5.094,5.092l-.414.41a4.237,4.237,0,0,1-2.966,1.365,4.2,4.2,0,0,1-2.94-1.346c-1.848-1.832-3.737-3.719-5.5-5.485l-.016-.014-.023-.023-.022-.022-.007-.007a1.37,1.37,0,0,0-1.029-.529c-.35,0-.684,0-1.02,0H10.83l-.025,0h-.588l-.443,0h-.22C9.113,32.9,8.669,32.9,8.228,32.9Zm3.7-10.2c-.129,0-.28.114-.468.285a2.364,2.364,0,0,0-.858,1.785l0,.566c-.005.841-.011,1.709.011,2.58a2.328,2.328,0,0,0,2.064,2.306A4.462,4.462,0,0,1,15.4,31.641c1.479,1.495,3.012,3.022,4.584,4.585l.812.808a1.7,1.7,0,0,0,1.152.64,1.768,1.768,0,0,0,1.181-.659l.665-.661C25.277,34.88,27,33.166,28.7,31.46a3.412,3.412,0,0,1,2.462-1.152c.038,0,.073,0,.111,0a.136.136,0,0,1,.027,0h.025c.426,0,.568-.2.693-.59a6.624,6.624,0,0,1,6.275-4.707,6.547,6.547,0,0,1,6.318,4.643.752.752,0,0,0,.848.643h.014c1.6-.011,3.186-.016,5.152-.016q.645,0,1.287,0H53.22l.641,0c.634,0,1.278,0,1.912.005q1.459,0,2.921,0h1.46q.731,0,1.462,0c1.348,0,2.7,0,4.381-.009a2.47,2.47,0,0,0,2.684-2.7c.009-1.054.009-1.928,0-2.673a2.454,2.454,0,0,0-2.38-2.528c-.082,0-.172-.009-.274-.009-.075,0-.148,0-.226,0h-.019l-.093,0c-.066,0-.125,0-.186,0a2.88,2.88,0,0,1-.3-.013,1.091,1.091,0,0,0-.138-.007c-.359,0-.552.157-.711.579a5.243,5.243,0,0,1-9.784.048.8.8,0,0,0-.887-.627c-4.793.007-9.491.011-13.962.011-5.5,0-9.932,0-13.96-.013h-.011a.836.836,0,0,0-.969.7,6.536,6.536,0,0,1-9.217,3.879A6.225,6.225,0,0,1,12.3,23.187C12.2,22.858,12.081,22.7,11.932,22.7ZM38.3,27.677a3.843,3.843,0,0,0-3.451,2.073c-.125.213-.16.346-.111.43s.17.118.387.118h.034c.355-.009.77-.013,1.346-.013.28,0,.561,0,.85,0h.5c.149,0,.3,0,.448,0s.3,0,.448,0h.468c.306,0,.611,0,.917,0,.531,0,.935,0,1.308.009h.041c.231,0,.367-.043.418-.131s.014-.245-.122-.462a3.849,3.849,0,0,0-3.439-2.027ZM15.3,22.377c-.165,0-.324.012-.376.1-.043.072-.018.19.079.371A3.779,3.779,0,0,0,18.41,25c.041,0,.081,0,.12,0A3.791,3.791,0,0,0,22,22.895c.107-.186.137-.318.09-.4-.059-.1-.235-.115-.416-.115H21.63c-.394,0-.788,0-1.183,0h-.788c-.09,0-.181,0-.272,0h-.548l-.011,0H17.686c-.292,0-.586,0-.878,0-.487,0-.977,0-1.464-.005Zm41.969.059A2.593,2.593,0,0,0,59.452,23.7a2.566,2.566,0,0,0,2.166-1.263ZM39.421,2.643a51.116,51.116,0,0,0-16.7,2.72c-5.217,1.8-9.034,4.081-12.013,7.184a13.17,13.17,0,0,0-3.534,6.288c-.091.4-.121.646-.018.776s.338.151.738.151H39.581l3.408,0H49.8q10.732,0,21.467,0c.52,0,.755-.024.86-.156s.075-.371-.043-.885a11.367,11.367,0,0,0-1.276-3.195,20.576,20.576,0,0,0-8.472-7.633A45.191,45.191,0,0,0,43.782,2.8C42.322,2.7,40.854,2.643,39.421,2.643Z" transform="translate(0 0)"/></g></g><path class="d" d="M1.387,2.579A1.3,1.3,0,0,0,2.651,1.261,1.276,1.276,0,0,0,1.341,0,1.282,1.282,0,0,0,0,1.309a1.3,1.3,0,0,0,1.387,1.27" transform="translate(38.318 13.201)"/><path class="d" d="M1.3,2.6A1.336,1.336,0,0,0,2.656,1.351,1.313,1.313,0,0,0,1.338,0,1.262,1.262,0,0,0,0,1.232,1.311,1.311,0,0,0,1.3,2.6" transform="translate(58.128 13.194)"/><path class="d" d="M1.335,2.608a1.305,1.305,0,0,0,1.3-1.364A1.254,1.254,0,0,0,1.316,0,1.3,1.3,0,0,0,0,1.268a1.331,1.331,0,0,0,1.334,1.34" transform="translate(29.073 6.607)"/><path class="d" d="M1.29,2.607a1.338,1.338,0,0,0,1.337-1.28A1.287,1.287,0,0,0,1.36,0,1.263,1.263,0,0,0,0,1.3,1.288,1.288,0,0,0,1.29,2.607" transform="translate(47.582 6.607)"/><path class="d" d="M1.335,2.6a1.323,1.323,0,0,0,1.3-1.289A1.308,1.308,0,0,0,1.284,0,1.244,1.244,0,0,0,0,1.274,1.3,1.3,0,0,0,1.335,2.6" transform="translate(17.204 13.194)"/><path class="d" d="M1.262,0A1.27,1.27,0,0,0,0,1.312,1.317,1.317,0,0,0,1.375,2.606a1.286,1.286,0,0,0,1.254-1.32A1.282,1.282,0,0,0,1.262,0" transform="translate(39.643 47.429)"/><path class="d" d="M1.325,0A1.287,1.287,0,0,0,0,1.348,1.3,1.3,0,0,0,1.359,2.59,1.279,1.279,0,0,0,2.628,1.274,1.243,1.243,0,0,0,1.325,0" transform="translate(15.87 47.437)"/><path class="d" d="M1.342,0A1.257,1.257,0,0,0,0,1.237a1.271,1.271,0,0,0,1.3,1.356A1.3,1.3,0,0,0,2.62,1.309,1.272,1.272,0,0,0,1.342,0" transform="translate(60.787 47.435)"/></svg>