<svg xmlns="http://www.w3.org/2000/svg" xmlns:xlink="http://www.w3.org/1999/xlink" width="79.633" height="60.17" viewBox="0 0 79.633 60.17"><defs><style>.a{fill:none;}.b{clip-path:url(#a);}.c{fill:#d06666;}.d{fill:#febd00;}</style><clipPath id="a"><path class="a" d="M0,0H79.633V60.17H0Z"/></clipPath></defs><g transform="translate(0 0)"><path class="a" d="M0,0H79.633V60.17H0Z" transform="translate(0 0)"/><g class="b" transform="translate(0 0)"><path class="c" d="M37.209,60.17h0a3.46,3.46,0,0,1-3.415-3.551c-.012-2.569-.018-5.321.016-8.038a.93.93,0,0,0-.65-1.011A44.482,44.482,0,0,1,18.37,36.728c-.336-.376-.556-.523-.786-.523s-.445.125-.819.444A65.156,65.156,0,0,1,5.2,44.449a3.713,3.713,0,0,1-1.781.464A3.43,3.43,0,0,1,.095,42.3,4.742,4.742,0,0,1,.22,40.028l.023-.105a38.458,38.458,0,0,1,3.182-8.888,1.568,1.568,0,0,0,.038-1.5A46.632,46.632,0,0,1,.118,19.515a3.313,3.313,0,0,1,1.3-3.551,3.362,3.362,0,0,1,2.037-.731,3.635,3.635,0,0,1,1.735.477,65.5,65.5,0,0,1,11.563,7.8c.38.327.614.454.835.454.243,0,.478-.158.838-.565a44.291,44.291,0,0,1,14.8-10.834.817.817,0,0,0,.581-.885c-.023-.99-.019-2-.016-2.972q0-.564,0-1.128c.009-.428.007-.863.006-1.284,0-.9-.006-1.822,0-2.735A3.48,3.48,0,0,1,37.211,0a3.649,3.649,0,0,1,1.74.453A61.814,61.814,0,0,1,52.186,9.62a1.358,1.358,0,0,0,.7.346,40.988,40.988,0,0,1,12.685,4.991,47.428,47.428,0,0,1,10.48,8.712,18.424,18.424,0,0,1,3.164,4.621,4.031,4.031,0,0,1-.022,3.629,20.658,20.658,0,0,1-3.872,5.392,47.766,47.766,0,0,1-9.9,7.983,40.665,40.665,0,0,1-11.8,4.739,4.423,4.423,0,0,0-2.073,1.086,60.854,60.854,0,0,1-12.72,8.646A3.464,3.464,0,0,1,37.209,60.17Zm-.734-8.364h0q0,.667,0,1.333c0,1.091,0,2.219.007,3.329.006.656.263,1.032.7,1.032a1.376,1.376,0,0,0,.645-.2,60.007,60.007,0,0,0,12.851-9.008,2.174,2.174,0,0,1,1.183-.611,35.083,35.083,0,0,0,12.068-4.614A38.86,38.86,0,0,0,75.921,32.3c1.464-2.08,1.617-2.3-.039-4.472a42.079,42.079,0,0,0-10.508-9.9,38.528,38.528,0,0,0-13.4-5.414A2.155,2.155,0,0,1,50.823,12,58.176,58.176,0,0,0,38.066,3a2.066,2.066,0,0,0-.921-.313c-.455,0-.667.391-.668,1.23V5.029c0,2.559-.007,5.205.009,7.806a1.617,1.617,0,0,1-1.154,1.717c-.447.161-.882.362-1.326.57A41.787,41.787,0,0,0,20.352,25.229a3.742,3.742,0,0,1-2.794,1.406,3.562,3.562,0,0,1-2.318-.93A63.675,63.675,0,0,0,4.383,18.295l-.154-.088a1.594,1.594,0,0,0-.753-.286.769.769,0,0,0-.489.187c-.412.328-.308.749-.208,1.157.016.063.031.125.044.185A43.347,43.347,0,0,0,5.9,28.464a4,4,0,0,1-.059,3.686A35.61,35.61,0,0,0,2.754,40.9l-.022.1c-.082.382-.167.777.231,1.078a.773.773,0,0,0,.475.173,1.579,1.579,0,0,0,.731-.265l.052-.029a64.761,64.761,0,0,0,11.006-7.479,3.7,3.7,0,0,1,2.406-.945,3.378,3.378,0,0,1,2.547,1.208A41.328,41.328,0,0,0,35.386,45.631a1.628,1.628,0,0,1,1.1,1.674c-.012,1.074-.009,2.163-.007,3.216q0,.643,0,1.285Z" transform="translate(0 0)"/></g></g><path class="d" d="M1.806,3.6A1.755,1.755,0,0,1,0,1.8,1.742,1.742,0,0,1,1.742,0h.034A1.759,1.759,0,0,1,3.607,1.762a1.807,1.807,0,0,1-.5,1.309A1.8,1.8,0,0,1,1.821,3.6Zm0-2.613a.831.831,0,0,0-.606.216.824.824,0,0,0-.213.61.73.73,0,0,0,.8.788.756.756,0,0,0,.817-.785c-.029-.531-.3-.818-.771-.83H1.81Z" transform="translate(61.106 28.236)"/></svg>