<svg xmlns="http://www.w3.org/2000/svg" xmlns:xlink="http://www.w3.org/1999/xlink" width="79.579" height="80.158" viewBox="0 0 79.579 80.158"><defs><style>.a{fill:none;}.b{clip-path:url(#a);}.c{fill:#d06666;}.d{clip-path:url(#b);}.e{fill:#76768f;}.f{clip-path:url(#c);}.g{fill:#febd00;}</style><clipPath id="a"><path class="a" d="M0,0H79.579V79.485H0Z"/></clipPath><clipPath id="b"><path class="a" d="M0,.01H4.381V.468H0Z" transform="translate(0 -0.01)"/></clipPath><clipPath id="c"><path class="a" d="M0,0H4.381V.5H0Z"/></clipPath></defs><g transform="translate(0 0)"><path class="a" d="M0,0H79.579V79.485H0Z"/><g class="b"><path class="c" d="M42.428,79.486h-.8a.342.342,0,0,0-.326-.163l-2.033.013-2.023.013a37.925,37.925,0,0,1-17.9-5.549A38.676,38.676,0,0,1,.622,46.609,39.559,39.559,0,0,1,29.588,1.386,40.878,40.878,0,0,1,39.991,0,39.387,39.387,0,0,1,56.826,3.865a4.614,4.614,0,0,1,2.55,2.772,4.629,4.629,0,0,1-.555,3.737q-4.242,7.147-8.49,14.29l-.023.038q-3.75,6.308-7.5,12.618c-.038.064-.082.127-.125.188a1.112,1.112,0,0,0-.273.69l3.512-.268,5.627-.426,6.008-.45q4.006-.3,8.011-.6,1.229-.093,2.459-.181h.01c2.185-.159,4.445-.323,6.664-.526.143-.013.287-.02.43-.02a4.546,4.546,0,0,1,3.219,1.329A4.225,4.225,0,0,1,79.577,40.1a38.682,38.682,0,0,1-9.33,25.176A39.742,39.742,0,0,1,44.926,79.14c-.288.042-.584.064-.869.084a6.4,6.4,0,0,0-1.628.261ZM39.954,2.7a38.017,38.017,0,0,0-21.04,6.5A36.968,36.968,0,0,0,2.688,39.889,37.42,37.42,0,0,0,7.38,57.768,37.386,37.386,0,0,0,24.353,73.454a35.936,35.936,0,0,0,11.469,3.114c1.376.137,2.752.206,4.091.206a35.491,35.491,0,0,0,19.057-5.409A37.776,37.776,0,0,0,72.006,58.258a38.337,38.337,0,0,0,4.859-17.853,1.979,1.979,0,0,0-.476-1.491,1.737,1.737,0,0,0-1.292-.493c-.056,0-.113,0-.171.006-1.057.068-2.131.153-3.17.236l-.02,0-1.3.1-4.551.354-.182.014c-3.626.283-7.366.574-11.044.855q-2.948.225-5.9.441h-.019c-2.683.2-5.458.4-8.185.618l-.048,0c-.2.015-.383.03-.567.03a1.406,1.406,0,0,1-1.271-.582c-.49-.7-.121-1.318.236-1.917l.006-.009q6.658-11.2,13.312-22.4L56.4,9.153a2.186,2.186,0,0,0,.4-1.744A2.192,2.192,0,0,0,55.479,6.2,37.145,37.145,0,0,0,39.954,2.7Z" transform="translate(0.001 0)"/></g></g><g transform="translate(37.245 79.363)"><path class="a" d="M0,.01H4.381V.468H0Z" transform="translate(0 -0.01)"/><g class="d" transform="translate(0 0)"><path class="e" d="M1.034.179C.689.128.34.352,0,.02q.029.2.039.419H4.381C3.269-.14,2.149.344,1.034.179" transform="translate(0 0.02)"/></g></g><g transform="translate(37.245 79.655)"><path class="a" d="M0,0H4.381V.5H0Z" transform="translate(0 0)"/><g class="f" transform="translate(0 0)"><path class="e" d="M4.045,0Q2.022.04,0,.085C.34.417.689.193,1.034.244,2.149.409,3.269-.076,4.381.5,4.3.107,4.182,0,4.045,0" transform="translate(0 0)"/></g></g><path class="c" d="M1.386,25.433a1.386,1.386,0,0,1-1.2-.7,1.359,1.359,0,0,1,.1-1.505q1.971-3.316,3.938-6.633l.052-.088c2.834-4.777,5.764-9.717,8.666-14.568A3.948,3.948,0,0,1,16.306,0,3.728,3.728,0,0,1,18.54.741a28.286,28.286,0,0,1,11.414,18.48,3.6,3.6,0,0,1-.761,2.788,3.8,3.8,0,0,1-2.661,1.5c-2.637.213-5.32.412-7.915.6h-.011v0c-1.629.12-3.314.245-4.971.372-2.817.215-5.678.441-8.445.66H5.179l-3.155.249-.04,0h-.01l-.446.029Q1.457,25.433,1.386,25.433ZM3.865,22.5l.246,0,.139,0c.049,0,.093,0,.137,0l2.434-.185.049,0c3.175-.241,6.458-.49,9.687-.74l.59-.045c2.9-.223,5.9-.453,8.855-.705a1.405,1.405,0,0,0,1.053-.47,1.437,1.437,0,0,0,.162-1.166,26.008,26.008,0,0,0-9.751-15.9,2.1,2.1,0,0,0-1.217-.566c-.446,0-.83.311-1.245,1.008q-2.4,4.04-4.8,8.081l-1.787,3.01-1.3,2.194L3.863,22.5Z" transform="translate(48.548 9.267)"/><path class="c" d="M6.762,0A7.089,7.089,0,0,0,0,7.088,7.168,7.168,0,0,0,.216,8.912a7.1,7.1,0,0,0,6.793,5.235,1.339,1.339,0,0,0,.191-2.67c-.158-.026-.32-.023-.48-.037a4.368,4.368,0,1,1,4.747-4.557c.057,1.018.589,1.575,1.454,1.522.841-.052,1.308-.692,1.252-1.714A7.139,7.139,0,0,0,6.762,0" transform="translate(17.776 35.18)"/><path class="c" d="M11.888,5.205a1.415,1.415,0,0,0-1.432,1.341,7.364,7.364,0,0,1-.13,1.027A3.876,3.876,0,1,1,6.351,2.7c1.035-.077,1.62-.6,1.586-1.424S7.28-.021,6.244,0A6.609,6.609,0,0,0,0,6.589a6.626,6.626,0,0,0,6.55,6.549,6.616,6.616,0,0,0,6.617-6.467,1.376,1.376,0,0,0-1.279-1.466" transform="translate(38.435 58.619)"/><path class="c" d="M5.573,11.027a5.59,5.59,0,0,0,5.5-5.3c.014-1.063-.721-1.76-1.659-1.528-.762.189-1.012.759-1.071,1.5A2.817,2.817,0,1,1,2.73,5.272,2.75,2.75,0,0,1,5.34,2.706C6.353,2.6,6.957,2.024,6.9,1.232,6.838.422,6.192-.032,5.151,0A5.551,5.551,0,0,0,0,5.469a5.555,5.555,0,0,0,5.573,5.557" transform="translate(33.591 8.369)"/><path class="c" d="M7.831.528A5.5,5.5,0,0,0,0,5.339c-.01.931.46,1.5,1.268,1.529A1.333,1.333,0,0,0,2.663,5.533a5.5,5.5,0,0,1,.131-.788,2.822,2.822,0,0,1,5.448.076A2.791,2.791,0,0,1,5.707,8.337c-1.061.1-1.571.59-1.521,1.463.048.84.673,1.293,1.713,1.242,2.824-.138,5.084-2.547,5.138-5.9A5.227,5.227,0,0,0,7.831.528" transform="translate(58.781 45.65)"/><path class="c" d="M3.839.079A4.787,4.787,0,0,0,.016,5.019a4.762,4.762,0,0,0,4.677,4.4A1.328,1.328,0,0,0,6.1,8.271,1.347,1.347,0,0,0,4.973,6.762c-.208-.047-.425-.049-.635-.089A2,2,0,0,1,2.8,4.185,2.049,2.049,0,0,1,4.831,2.674,2.023,2.023,0,0,1,6.769,4.559c.131,1.024.675,1.553,1.523,1.48A1.325,1.325,0,0,0,9.483,4.52,4.712,4.712,0,0,0,3.839.079" transform="translate(20.091 57.091)"/><path class="c" d="M6.045,9.275A4.724,4.724,0,0,0,9.362,3.861,4.784,4.784,0,0,0,4.445.01,4.771,4.771,0,0,0,0,4.48C-.025,5.407.42,6,1.2,6.084S2.549,5.66,2.688,4.751c.02-.132.026-.266.052-.4A2,2,0,0,1,4.889,2.722,2.063,2.063,0,0,1,6.759,4.694,2.031,2.031,0,0,1,4.988,6.739a5.228,5.228,0,0,0-.556.065A1.3,1.3,0,0,0,3.4,8.292a1.32,1.32,0,0,0,1.3,1.17,4.066,4.066,0,0,0,1.345-.187" transform="translate(13.45 19.149)"/><path class="g" d="M1.838,3.7A1.867,1.867,0,0,1,0,1.926,1.864,1.864,0,0,1,1.834,0h.028A1.9,1.9,0,0,1,3.706,1.733,1.819,1.819,0,0,1,3.227,3.07,1.9,1.9,0,0,1,1.9,3.7Zm0-2.689a.794.794,0,0,0-.827.774.832.832,0,0,0,.178.625.864.864,0,0,0,.613.28l.074,0a.871.871,0,0,0,.84-.812.855.855,0,0,0-.853-.869H1.835Z" transform="translate(33.096 27.639)"/><path class="g" d="M1.867,3.69A1.865,1.865,0,0,1,0,1.878,1.841,1.841,0,0,1,.54.571,1.875,1.875,0,0,1,1.863,0H1.9a1.83,1.83,0,0,1,1.8,1.867A1.79,1.79,0,0,1,1.867,3.69ZM1.83,1.018a.772.772,0,0,0-.792.824.788.788,0,0,0,.817.848h.033a.77.77,0,0,0,.806-.819.815.815,0,0,0-.207-.611.881.881,0,0,0-.644-.242Z" transform="translate(8.216 38.398)"/><path class="g" d="M1.857,3.69H1.85A1.836,1.836,0,0,1,.535.558,1.836,1.836,0,0,1,1.851,0h.035a1.828,1.828,0,0,1,1.8,1.862A1.82,1.82,0,0,1,1.857,3.69ZM1.842,1.009a.765.765,0,0,0-.812.81.858.858,0,0,0,.215.633.85.85,0,0,0,.62.236h.012a.786.786,0,0,0,.81-.814A.81.81,0,0,0,1.842,1.009Z" transform="translate(39.126 48.829)"/></svg>