<svg xmlns="http://www.w3.org/2000/svg" width="43.221" height="37.338" viewBox="0 0 43.221 37.338"><defs><style>.a{fill:#d06666;}</style></defs><g transform="translate(0 0)"><path class="a" d="M.009,61.621a10.316,10.316,0,1,0,6.956-9.726C9.281,38.616,19.636,30.052,10.037,37.1-.607,44.916,0,61.306.01,61.607.01,61.611.009,61.616.009,61.621Z" transform="translate(0 -34.571)"/><path class="a" d="M266.07,61.621a10.316,10.316,0,1,0,6.956-9.726C275.342,38.616,285.7,30.052,276.1,37.1c-10.644,7.815-10.039,24.206-10.027,24.507C266.07,61.611,266.07,61.616,266.07,61.621Z" transform="translate(-243.426 -34.571)"/></g></svg>