<svg height="512" viewBox="0 0 128 128" width="512" xmlns="http://www.w3.org/2000/svg" xmlns:xlink="http://www.w3.org/1999/xlink"><linearGradient id="a" gradientUnits="userSpaceOnUse" x1="116.355" x2="11.645" y1="111.355" y2="6.645"><stop offset="0" stop-color="#ff6680"/><stop offset="1" stop-color="#ffd830"/></linearGradient><path d="m86.953 70.035h8a1.75 1.75 0 0 0 1.75-1.75v-7.563a1.75 1.75 0 0 0 -1.75-1.75h-8a1.75 1.75 0 0 0 -1.75 1.75v7.563a1.75 1.75 0 0 0 1.75 1.75zm1.75-7.563h4.5v4.063h-4.503zm-1.75 37h8a1.749 1.749 0 0 0 1.75-1.75v-22.562a1.749 1.749 0 0 0 -1.75-1.75h-8a1.749 1.749 0 0 0 -1.75 1.75v22.562a1.749 1.749 0 0 0 1.75 1.75zm1.747-22.562h4.5v19.062h-4.5zm-37.567-47.344a14.1 14.1 0 0 1 -8.333 12.859v4.806a1.751 1.751 0 0 1 -1.75 1.75h-8a1.751 1.751 0 0 1 -1.75-1.75v-13.331a1.75 1.75 0 0 1 1.75-1.75h4a2.586 2.586 0 1 0 -2.586-2.586 1.749 1.749 0 0 1 -1.75 1.75h-8a1.75 1.75 0 0 1 -1.75-1.75 14.04 14.04 0 0 1 2.093-7.381 1.75 1.75 0 0 1 2.978 1.839 10.512 10.512 0 0 0 -1.425 3.792h4.611a6.086 6.086 0 1 1 5.829 7.836h-2.25v9.829h4.5v-4.243a1.748 1.748 0 0 1 1.181-1.654 10.586 10.586 0 0 0 -3.431-20.6 1.75 1.75 0 1 1 0-3.5 14.1 14.1 0 0 1 14.083 14.084zm-10.086 22.345h-8a1.751 1.751 0 0 0 -1.75 1.75v7.563a1.751 1.751 0 0 0 1.75 1.75h8a1.751 1.751 0 0 0 1.75-1.75v-7.563a1.751 1.751 0 0 0 -1.75-1.75zm-1.747 7.563h-4.5v-4.063h4.5zm52.578-8.813a1.75 1.75 0 0 1 1.75-1.75h4.622a1.75 1.75 0 0 1 0 3.5h-4.625a1.75 1.75 0 0 1 -1.75-1.75zm19.375-1.75a1.75 1.75 0 0 0 0 3.5 13.265 13.265 0 0 1 13.25 13.25v27.122a13.265 13.265 0 0 1 -13.25 13.25h-12.3a1.75 1.75 0 0 0 -1.366.657l-6.634 8.292-6.634-8.292a1.75 1.75 0 0 0 -1.366-.657h-12.3a13.265 13.265 0 0 1 -13.25-13.25v-23.7a16.765 16.765 0 0 0 16.687-16.672h6.535a1.75 1.75 0 0 0 0-3.5h-6.531v-23.694a16.769 16.769 0 0 0 -16.75-16.75h-40.594a16.769 16.769 0 0 0 -16.75 16.75v27.122a16.769 16.769 0 0 0 16.75 16.75h11.456l7.474 9.343a1.751 1.751 0 0 0 2.734 0l7.474-9.343h8.018v23.694a16.769 16.769 0 0 0 16.75 16.75h11.456l7.475 9.344a1.75 1.75 0 0 0 2.732 0l7.475-9.344h11.456a16.769 16.769 0 0 0 16.75-16.75v-27.122a16.769 16.769 0 0 0 -16.75-16.75zm-66.2 16.678a1.752 1.752 0 0 0 -1.367.657l-6.633 8.292-6.633-8.292a1.752 1.752 0 0 0 -1.367-.657h-12.303a13.265 13.265 0 0 1 -13.25-13.25v-27.122a13.265 13.265 0 0 1 13.25-13.25h40.594a13.265 13.265 0 0 1 13.25 13.25v27.122a13.265 13.265 0 0 1 -13.25 13.25z" fill="url(#a)"/></svg>